# xmcd
#
# Track frame offsets:
#	150
#	19170
#	32987
#	53352
#	68237
#
# Disc length: 1099 seconds
#
# Revision: 1
# Processed by: cddbd v1.5.1PL0 Copyright (c) Steve Scherf et al.
# Submitted via: CDex 1.50Beta5
#
DISCID=39044905
DTITLE=Various Artist - マグナムドライ爽快仕込Best Sound Collection 70's B
DYEAR=1900
DGENRE=Pop
TTITLE0=チャンピオン
TTITLE1=戦争を知らない子供たち
TTITLE2=サボテンの花
TTITLE3=マイ・ピュア・レディ
TTITLE4=あの素晴らしい愛をもう一度
EXTD=
EXTT0=
EXTT1=
EXTT2=
EXTT3=
EXTT4=
PLAYORDER=
